<?xml version="1.0" standalone="no"?>
<!DOCTYPE svg PUBLIC "-//W3C//DTD SVG 20010904//EN"
 "http://www.w3.org/TR/2001/REC-SVG-20010904/DTD/svg10.dtd">
<svg version="1.0" xmlns="http://www.w3.org/2000/svg"
 width="1024.000000pt" height="1024.000000pt" viewBox="0 0 1024.000000 1024.000000"
 preserveAspectRatio="xMidYMid meet">

<g transform="translate(0.000000,1024.000000) scale(0.100000,-0.100000)"
fill="#000000" stroke="none">
<path d="M2016 6450 c-173 -28 -380 -107 -514 -199 -84 -57 -221 -189 -288
-278 -230 -306 -298 -743 -173 -1118 155 -464 590 -789 1090 -812 352 -16 670
107 919 357 232 232 350 516 350 847 0 196 -36 357 -120 531 -69 143 -136 237
-244 340 -176 168 -363 266 -606 318 -89 19 -331 27 -414 14z m-30 -1090 c8 0
26 22 141 172 l98 128 82 0 c45 0 90 3 100 7 22 8 31 22 -130 -191 -65 -86
-120 -162 -123 -169 -2 -7 56 -98 131 -202 74 -104 135 -193 135 -197 0 -4
-37 -8 -82 -8 l-83 1 -93 134 -93 135 -45 0 -44 0 0 -135 0 -135 -75 0 -75 0
0 380 0 379 73 3 72 3 3 -152 c1 -84 5 -153 8 -153z m905 289 c131 -40 198
-210 135 -344 -22 -48 -51 -80 -105 -115 l-23 -15 64 -90 c35 -50 78 -111 96
-137 l33 -48 -80 0 -80 0 -91 135 -92 135 -54 0 -54 0 0 -135 0 -135 -70 0
-70 0 0 380 0 380 176 0 c104 0 192 -5 215 -11z m-1489 -177 c57 -33 134 -76
171 -96 l68 -37 -3 -77 -3 -77 -155 -93 c-85 -51 -163 -97 -172 -103 -17 -9
-18 -3 -18 70 l0 79 105 59 c57 32 105 61 105 66 0 4 -47 31 -105 59 l-105 53
0 77 c0 43 2 78 5 78 2 0 50 -26 107 -58z"/>
<path d="M2640 5405 l0 -125 79 0 c117 0 168 26 192 97 9 28 8 43 -6 79 -23
62 -52 74 -170 74 l-95 0 0 -125z"/>
<path d="M6650 6177 c-111 -31 -169 -101 -177 -210 -9 -125 57 -193 237 -242
117 -32 160 -61 160 -107 0 -42 -17 -68 -55 -84 -44 -18 -96 -18 -140 0 -36
15 -75 67 -75 99 0 13 -5 17 -17 13 -10 -3 -44 -8 -75 -12 -64 -7 -66 -11 -48
-75 15 -54 80 -122 142 -149 107 -46 253 -36 331 24 63 48 91 106 91 186 -1
76 -17 113 -70 159 -42 38 -59 45 -179 78 -49 13 -100 31 -113 39 -34 22 -45
58 -28 98 17 41 61 60 122 53 53 -6 88 -34 104 -83 11 -33 13 -34 53 -28 104
13 108 15 103 32 -2 9 -7 31 -11 49 -11 54 -61 112 -120 139 -66 30 -170 40
-235 21z"/>
<path d="M3795 6172 c-3 -3 -5 -180 -5 -394 l0 -388 80 0 80 0 0 128 0 128 35
34 c30 29 37 32 45 20 4 -8 52 -81 105 -162 l97 -148 94 0 c52 0 94 2 94 4 0
5 -201 301 -255 376 l-32 45 138 173 c77 96 139 178 139 183 0 11 -170 12
-186 1 -6 -4 -59 -70 -118 -147 -114 -147 -153 -195 -158 -195 -2 0 -2 79 0
175 l3 175 -75 -1 c-41 -1 -78 -4 -81 -7z"/>
<path d="M4786 6138 c-21 -56 -256 -741 -256 -746 0 -1 37 -2 82 0 l81 3 30
88 29 88 146 -3 145 -3 30 -87 29 -88 85 0 c64 0 84 3 81 13 -3 6 -65 184
-138 395 l-133 382 -98 0 -97 0 -16 -42z m167 -286 c26 -74 47 -138 47 -143 0
-5 -47 -9 -104 -9 l-104 0 51 150 c28 82 54 146 58 142 3 -4 27 -67 52 -140z"/>
<path d="M5387 6173 c-4 -3 -7 -181 -7 -395 l0 -388 75 0 75 0 0 260 c0 143 4
260 8 260 5 0 13 -9 18 -19 5 -11 74 -128 154 -260 l145 -240 78 -1 77 0 0
395 0 396 -72 -3 -73 -3 -3 -260 c-3 -234 -4 -257 -17 -227 -8 18 -78 136
-156 262 l-142 230 -77 0 c-42 0 -80 -3 -83 -7z"/>
<path d="M6177 6174 c-4 -4 -7 -182 -7 -396 l0 -388 80 0 80 0 -2 393 -3 392
-70 3 c-39 1 -74 0 -78 -4z"/>
<path d="M7160 5785 l0 -395 75 0 75 0 0 165 0 165 155 0 155 0 0 -165 0 -165
75 0 c84 0 77 -9 77 90 0 22 -1 189 -1 371 l-1 330 -72 -4 -73 -3 -3 -157 -3
-157 -154 0 -155 0 0 160 0 160 -75 0 -75 0 0 -395z"/>
<path d="M7940 5886 c0 -285 1 -292 24 -341 29 -62 76 -107 141 -137 40 -18
68 -22 140 -23 79 0 97 4 147 28 32 16 73 46 92 69 62 72 66 98 66 415 l0 284
-74 -2 -75 -2 -3 -271 c-3 -238 -5 -275 -21 -304 -52 -94 -204 -98 -264 -5
-16 24 -19 59 -23 303 l-5 275 -72 1 -73 1 0 -291z"/>
<path d="M8700 5785 l0 -395 75 0 75 0 0 125 0 125 35 38 c32 33 36 35 48 20
6 -9 55 -82 107 -162 l95 -146 98 0 97 0 -67 98 c-37 53 -104 150 -150 214
-45 65 -78 120 -72 123 10 7 279 341 279 348 0 2 -43 4 -96 3 -75 -1 -98 -4
-107 -17 -75 -102 -254 -328 -259 -329 -5 0 -8 79 -8 175 l0 175 -75 0 -75 0
0 -395z"/>
<path d="M3790 4780 l0 -391 78 3 77 3 3 138 3 137 53 0 54 0 78 -140 78 -140
88 0 89 0 -12 23 c-6 12 -46 80 -87 151 -57 97 -72 131 -62 134 30 9 109 101
119 139 27 95 2 202 -60 264 -58 58 -109 69 -321 69 l-178 0 0 -390z m353 239
c51 -23 72 -101 42 -158 -21 -42 -71 -61 -159 -61 l-76 0 0 115 0 115 85 0
c46 0 95 -5 108 -11z"/>
<path d="M4490 4780 l0 -390 250 0 250 0 0 70 0 70 -170 0 -170 0 0 90 0 90
150 0 150 0 0 70 0 70 -150 0 -150 0 0 90 0 90 170 0 170 0 0 70 0 70 -250 0
-250 0 0 -390z"/>
<path d="M5120 4780 l0 -392 178 4 c214 6 260 19 351 104 94 87 133 208 111
348 -22 144 -89 239 -208 294 -54 26 -66 27 -244 30 l-188 4 0 -392z m341 238
c54 -18 83 -43 113 -97 70 -130 29 -303 -86 -362 -31 -16 -67 -24 -125 -27
l-83 -5 0 252 0 251 74 0 c40 0 88 -5 107 -12z"/>
<path d="M5897 5163 c-2 -4 -5 -181 -6 -392 l-2 -384 173 5 c146 4 182 9 230
27 161 62 245 200 236 389 -8 159 -70 262 -196 324 l-67 33 -181 3 c-100 2
-184 0 -187 -5z m348 -152 c85 -39 125 -114 125 -235 -1 -156 -95 -246 -256
-246 l-64 0 0 250 0 250 78 0 c53 0 89 -6 117 -19z"/>
<path d="M6540 5161 c0 -5 56 -113 125 -240 l125 -231 0 -150 0 -150 80 0 80
0 0 149 0 149 89 159 c49 87 109 194 135 238 l46 80 -82 3 c-45 2 -86 1 -92
-1 -6 -3 -47 -75 -91 -161 -44 -85 -82 -156 -85 -156 -3 0 -41 71 -85 158
l-80 157 -82 3 c-48 2 -83 -1 -83 -7z"/>
</g>
</svg>
